<?xml version="1.0" encoding="utf-8"?>
<!-- Generator: Adobe Illustrator 19.2.1, SVG Export Plug-In . SVG Version: 6.00 Build 0)  -->
<svg version="1.1" id="layer" xmlns="http://www.w3.org/2000/svg" xmlns:xlink="http://www.w3.org/1999/xlink" x="0px" y="0px"
	 viewBox="0 0 652 652" style="enable-background:new 0 0 652 652;" xml:space="preserve">
<style type="text/css">
	.st0{fill:#803278;}
</style>
<path class="st0" d="M224.9,360.7V187.2l-36,8.5v180.4c0,22.8,7.9,33.9,24.3,33.9c13.2,0,22.8-5.3,28.6-15.9
	C230.7,390.9,224.9,379.8,224.9,360.7z M625.9,316.8c0-26.5-4.8-40.2-18.5-52.9c-12.2-11.1-29.1-14.3-45.5-14.3
	c-20.6,0-40.2,14.3-44.4,20.6c-4.8-6.3-21.7-20.6-47.1-20.6c-17.5,0-32.3,4.8-44.4,15.3c-11.6,10.6-17.5,25.9-17.5,51.3v87.8h37
	v-95.2c0-9,2.6-15.3,7.9-19.6s11.1-6.3,18-6.3s12.7,2.1,18.5,6.3c5.3,4.2,7.9,10.6,7.9,19.6v7.9v87.8h39.2v-87.8v-7.9
	c0-9,2.6-15.3,7.9-19.6c5.3-4.2,11.6-6.3,18.5-6.3s12.7,2.1,18.5,6.3c5.3,4.2,7.9,10.6,7.9,19.6l0.5,78.3c0,9.5,7.9,17.5,17.5,17.5
	h19L625.9,316.8z M102.1,247c-13.2,0-28,5.3-39.2,13.2v-10.6l-36,9.5v204.8h18.5c9.5,0,17.5-7.9,17.5-17.5v-46.6
	c9.5,4.8,19.6,6.9,30.7,6.9c23.3,0,41.8-6.9,55.6-20.6c13.8-13.8,20.1-32.8,20.1-58.2C169.9,274,142.3,247,102.1,247z M121.2,364.4
	c-7.4,7.9-19,11.6-36,11.6c-9,0-16.4-2.6-22.8-7.9v-81c6.9-6.9,18.5-11.1,27-11.1c16.4,0,24.3,4.8,31.7,12.2s10.6,20.1,10.6,38.6
	C132.3,343.8,128.6,356.5,121.2,364.4z M348.7,355.4c-2.1,5.8-6.9,10.6-13.8,14.8c-6.9,4.2-14.8,6.3-22.8,6.3
	c-18,0-26.5-10.1-26.5-29.6v-97.4h-36v100c0,38.1,18,57.1,53.4,57.1c7.4,0,15.9-1.6,24.9-4.8c9-3.2,15.9-6.9,21.2-11.1v12.7h36v-154
	h-36v105.8H348.7z"/>
</svg>
